<?xml version="1.0" encoding="utf-8"?>
<!-- Generator: Adobe Illustrator 26.5.3, SVG Export Plug-In . SVG Version: 6.00 Build 0)  -->
<svg version="1.1" id="Layer_1" xmlns="http://www.w3.org/2000/svg" xmlns:xlink="http://www.w3.org/1999/xlink" x="0px" y="0px"
	 viewBox="0 0 256 256" style="enable-background:new 0 0 256 256;" xml:space="preserve">
<style type="text/css">
	.st0{fill:none;}
	.st1{fill:none;stroke:#552F0C;stroke-width:12;stroke-linecap:round;stroke-linejoin:round;}
</style>
<rect class="st0" width="256" height="256"/>
<line class="st1" x1="128" y1="232" x2="128" y2="88"/>
<line class="st1" x1="128" y1="152" x2="80" y2="128"/>
<line class="st1" x1="128" y1="128" x2="176" y2="104"/>
<path class="st1" d="M132.5,181.2c29.2,19.9,69,12.3,88.9-16.9s12.3-69-16.9-88.9c-3.1-2.1-6.4-4-9.9-5.5c-1.8-0.9-3.2-2.4-4-4.2
	c-14.5-34.6-54.4-50.9-89-36.4c-16.4,6.9-29.5,20-36.4,36.4c-0.8,1.8-2.2,3.3-4,4.2C29,84.4,14.6,122.2,29.1,154.5
	s52.3,46.7,84.6,32.2c3.4-1.5,6.7-3.4,9.9-5.5C126.2,179.4,129.8,179.4,132.5,181.2z"/>
</svg>
